<?xml version="1.0" standalone="no"?>
<!DOCTYPE svg PUBLIC "-//W3C//DTD SVG 20010904//EN"
 "http://www.w3.org/TR/2001/REC-SVG-20010904/DTD/svg10.dtd">
<svg version="1.0" xmlns="http://www.w3.org/2000/svg"
 width="204.000000pt" height="204.000000pt" viewBox="0 0 204.000000 204.000000"
 preserveAspectRatio="xMidYMid meet">
<metadata>
Created by potrace 1.11, written by Peter Selinger 2001-2013
</metadata>
<g transform="translate(0.000000,204.000000) scale(0.100000,-0.100000)"
fill="#000000" stroke="none">
<path d="M0 1020 l0 -1020 1020 0 1020 0 0 420 c0 234 -4 420 -9 420 -5 0 -14
-7 -21 -15 -19 -22 -27 -18 -32 15 -6 39 12 65 41 57 16 -4 21 -1 21 14 0 10
-7 19 -15 19 -11 0 -15 11 -15 40 0 29 4 40 15 40 13 0 15 64 15 515 l0 515
-1020 0 -1020 0 0 -1020z m898 951 c23 -20 29 -41 11 -41 -5 0 -7 -4 -4 -10
10 -17 33 -11 40 10 9 28 54 38 71 15 11 -15 16 -16 29 -5 13 11 21 11 36 1
11 -6 28 -10 37 -7 9 3 24 1 32 -4 13 -8 13 -13 2 -30 -9 -15 -13 -52 -11
-112 1 -68 -2 -92 -12 -99 -8 -5 -9 -9 -4 -9 6 1 19 7 29 15 12 9 15 15 7 15
-11 0 -13 17 -9 75 4 61 9 80 27 96 11 11 21 26 21 33 0 8 6 16 13 19 18 7 97
-33 97 -49 0 -19 17 -18 28 2 7 13 14 14 50 2 41 -12 58 -38 26 -38 -9 0 -14
-5 -12 -12 8 -22 24 -19 38 7 16 29 28 31 46 8 15 -20 18 -53 6 -53 -5 0 -6
-21 -2 -46 5 -34 16 -54 44 -81 20 -20 39 -33 43 -29 3 3 -10 23 -30 43 -37
36 -50 84 -27 98 8 5 7 11 0 20 -29 35 36 49 72 16 18 -18 19 -22 6 -35 -18
-18 -12 -65 9 -73 10 -4 12 -14 8 -34 -6 -27 -5 -29 24 -29 17 0 31 5 31 11 0
6 12 9 28 7 25 -3 27 -6 27 -52 0 -31 -5 -51 -12 -54 -8 -2 -13 5 -13 16 0 20
-37 42 -70 42 -10 0 -20 5 -22 12 -2 6 -9 8 -16 4 -14 -8 15 -46 35 -46 7 0
13 -2 13 -4 0 -2 3 -12 7 -22 4 -12 3 -15 -5 -10 -7 4 -15 1 -18 -8 -9 -24
-33 -8 -121 78 -81 79 -83 82 -83 130 0 47 -1 48 -25 42 -17 -4 -37 0 -55 11
-32 19 -37 29 -17 36 6 2 4 3 -5 2 -10 -2 -18 3 -18 10 0 26 -22 27 -44 4 -31
-33 -30 -107 1 -132 12 -10 20 -24 17 -32 -3 -8 4 -19 17 -26 22 -11 22 -12 4
-25 -15 -11 -16 -16 -5 -29 7 -8 19 -15 26 -15 17 0 18 -26 2 -34 -7 -3 -3 -3
10 0 12 3 23 1 23 -5 1 -6 3 -15 4 -21 1 -5 3 -14 4 -20 0 -5 8 -10 16 -10 27
0 19 69 -10 92 -14 11 -23 24 -19 29 3 5 -5 18 -18 29 -19 16 -20 19 -5 20 10
0 17 8 17 20 0 10 -8 24 -17 29 -17 10 -17 10 0 11 9 0 17 4 17 9 0 5 14 11
30 13 20 3 30 0 30 -9 0 -7 -11 -13 -25 -13 -14 0 -25 -3 -25 -8 0 -4 27 -33
60 -65 56 -54 60 -62 61 -105 1 -26 4 -37 6 -25 2 12 13 25 25 28 32 11 53
-29 51 -95 -2 -42 0 -50 7 -35 8 16 9 15 4 -10 -3 -16 -12 -37 -21 -47 -13
-15 -12 -17 9 -23 61 -17 58 -18 58 17 0 19 -5 39 -11 45 -7 7 -8 17 -3 25 5
7 9 20 9 28 0 9 11 16 28 18 18 2 27 9 27 22 0 25 10 50 21 50 11 0 12 -27 0
-32 -11 -4 -21 -97 -10 -104 5 -3 9 -14 9 -25 0 -10 5 -19 10 -19 6 0 10 -7
10 -15 0 -8 -7 -15 -15 -15 -8 0 -15 5 -15 11 0 5 -4 7 -10 4 -18 -11 -11 -42
11 -48 14 -4 19 -11 15 -24 -3 -10 -6 -66 -7 -125 -2 -60 -6 -108 -10 -108 -3
0 -10 48 -13 108 -10 153 -17 212 -27 212 -5 0 -10 -30 -10 -67 -3 -151 -8
-254 -14 -263 -3 -5 -1 -11 5 -15 5 -3 10 -10 10 -15 0 -6 -9 -2 -20 7 -17 15
-20 30 -20 98 0 44 -5 87 -10 95 -7 11 -10 2 -10 -32 0 -30 -6 -52 -17 -64
-10 -9 -20 -40 -23 -70 -5 -46 -3 -57 16 -78 12 -13 39 -27 60 -30 62 -12 83
-53 42 -80 -14 -8 -22 -7 -35 7 -15 14 -16 21 -5 37 11 18 10 20 -18 20 -52 0
-78 35 -82 108 -2 42 -7 62 -15 62 -19 0 -17 -114 2 -133 8 -8 11 -18 7 -22
-4 -5 -1 -4 7 0 11 6 13 4 8 -8 -4 -11 -2 -14 8 -11 8 3 12 -1 12 -13 -1 -10
4 -18 13 -17 10 1 16 -10 18 -33 2 -32 1 -33 -20 -22 -13 7 -33 23 -45 35 -17
18 -22 20 -25 9 -2 -11 -13 -6 -40 20 -21 18 -38 39 -38 44 0 6 -4 11 -10 11
-5 0 -10 -16 -10 -35 0 -30 4 -35 35 -44 19 -5 49 -23 66 -40 38 -38 28 -41
-12 -4 -16 16 -43 30 -61 33 -31 5 -33 8 -36 48 -5 64 -22 50 -22 -18 0 -54 2
-60 20 -60 20 0 38 -25 26 -37 -3 -3 -17 -1 -32 5 -27 13 -26 5 4 -31 17 -20
8 -37 -10 -19 -21 21 -29 13 -12 -13 22 -33 4 -32 -29 2 -21 23 -26 39 -29 88
l-3 60 -11 -65 -11 -65 -3 105 c-3 95 -4 100 -10 50 -5 -30 -8 -85 -9 -122 -1
-58 2 -69 21 -82 31 -22 41 -20 27 7 -12 22 -12 22 8 2 11 -11 16 -21 12 -23
-5 -2 -6 -16 -3 -31 5 -24 2 -30 -26 -41 -28 -12 -33 -11 -50 8 -22 24 -26 42
-9 42 9 0 10 18 4 63 -4 34 -11 94 -15 132 -7 59 -8 49 -6 -63 l2 -133 -23 6
c-16 4 -23 1 -23 -9 0 -8 5 -18 10 -21 20 -12 10 -35 -15 -35 -16 0 -25 6 -25
15 0 8 5 15 10 15 6 0 10 19 9 43 -1 47 -26 222 -28 195 0 -9 -6 -18 -13 -20
-6 -2 -13 -18 -14 -35 -1 -17 -5 -36 -9 -42 -3 -7 2 -11 14 -11 15 0 21 -6 21
-21 0 -18 -5 -20 -34 -16 -19 2 -39 8 -45 11 -7 5 -11 -2 -11 -16 0 -13 -3
-40 -6 -60 -6 -31 -4 -38 10 -38 9 0 19 7 22 15 10 24 43 18 50 -9 3 -14 3
-30 -1 -35 -8 -14 -42 -14 -50 -1 -3 6 -15 5 -31 -2 -20 -9 -30 -9 -45 0 -11
7 -37 12 -57 11 -20 -1 -50 6 -66 14 -20 11 -34 13 -42 6 -12 -10 -44 -2 -44
11 0 4 -13 24 -30 45 -33 41 -37 55 -17 55 7 0 13 15 14 35 1 19 -3 35 -8 35
-14 0 -11 27 4 33 8 3 11 27 9 86 -4 103 -18 107 -15 4 l1 -78 -10 55 c-6 30
-13 57 -14 59 -2 2 -13 -4 -24 -14 -28 -26 -28 -101 0 -110 11 -3 20 -15 20
-26 0 -10 7 -19 15 -19 18 0 19 -11 2 -34 -19 -27 -51 -17 -55 17 -2 15 -12
33 -23 40 -10 6 -19 17 -19 24 0 7 -4 13 -9 13 -13 0 -20 35 -9 54 7 12 5 16
-10 16 -10 0 -23 5 -29 11 -8 8 -20 7 -43 -4 -34 -17 -55 -14 -64 9 -7 18 11
57 23 49 5 -2 25 11 46 30 34 33 36 38 30 75 -4 25 -18 52 -37 70 -16 17 -31
30 -32 30 -2 0 -2 -20 -2 -43 1 -24 6 -44 11 -44 39 0 45 -4 45 -33 0 -21 -5
-30 -16 -30 -11 0 -15 6 -11 19 6 26 -10 51 -22 33 -11 -19 -22 8 -15 41 2 16
-1 27 -12 31 -8 3 -12 2 -9 -4 3 -6 -1 -7 -9 -4 -23 9 -20 34 4 34 23 0 26 10
8 28 -9 9 -9 15 0 24 16 16 15 25 -4 32 -13 5 -15 2 -11 -14 4 -16 1 -19 -22
-16 -24 3 -27 0 -23 -21 5 -29 -7 -29 -37 -2 -17 16 -19 24 -11 34 6 8 18 11
26 8 8 -3 14 1 14 11 0 10 9 16 23 17 16 1 18 2 5 6 -19 5 -25 33 -7 33 6 0
17 6 24 14 12 12 12 15 1 19 -7 3 -18 1 -24 -5 -6 -6 -15 -7 -21 -4 -14 9 -14
36 -1 36 16 0 12 30 -5 36 -8 4 -15 13 -15 22 0 13 3 12 20 -3 10 -9 26 -15
34 -12 10 4 13 1 9 -9 -3 -7 -9 -14 -14 -14 -5 0 -9 -4 -9 -10 0 -5 9 -10 20
-10 11 0 20 4 20 10 0 5 7 7 15 3 9 -3 15 -2 14 3 -5 29 2 224 9 224 4 0 6
-18 4 -40 -3 -26 1 -44 11 -55 14 -13 21 -10 65 30 28 25 59 45 71 45 14 0 21
6 21 19 0 10 7 21 15 25 22 8 18 26 -6 26 -11 0 -38 -18 -60 -40 -22 -22 -46
-40 -54 -40 -8 0 -15 -7 -15 -15 0 -8 -7 -15 -15 -15 -22 0 -18 17 6 30 12 7
18 18 15 26 -3 8 -2 14 2 14 12 0 72 58 72 69 0 18 -17 12 -46 -14 -31 -29
-31 -29 -40 -13 -4 6 -3 8 4 4 6 -3 14 3 17 15 4 11 9 18 13 15 6 -6 32 48 32
65 0 5 -18 17 -40 26 -37 16 -38 18 -23 35 9 10 24 18 34 18 24 0 42 -33 27
-48 -18 -18 14 -25 49 -10 30 13 31 15 29 73 -1 55 1 60 22 63 31 5 39 -24 15
-51 -11 -12 -18 -27 -16 -34 2 -7 -2 -27 -10 -45 -25 -56 -30 -88 -12 -88 18
0 64 48 65 68 0 6 9 12 21 12 28 0 52 26 52 57 0 16 2 21 7 13 4 -7 3 -26 -2
-42 -6 -16 -8 -31 -5 -34 9 -10 36 27 30 41 -4 11 -1 13 11 9 9 -3 16 -1 16 5
0 6 -7 11 -15 11 -14 0 -20 14 -15 35 1 6 4 21 6 34 2 21 19 41 34 41 3 -1 15
-9 28 -19z m-121 -35 c-3 -8 -11 -32 -18 -55 -10 -33 -17 -41 -36 -41 -28 0
-30 11 -4 27 10 6 22 28 25 47 4 23 13 36 23 36 9 0 13 -6 10 -14z m-117 -22
c0 -10 -28 -34 -39 -34 -14 0 -14 13 1 28 12 12 38 17 38 6z m643 -91 c2 -10
5 -30 6 -45 0 -22 -3 -26 -17 -21 -26 10 -31 23 -20 54 11 33 25 37 31 12z
m-773 -19 c0 -9 -7 -14 -17 -12 -25 5 -28 28 -4 28 12 0 21 -6 21 -16z m-107
-8 c21 -16 21 -23 3 -42 -23 -23 -56 -18 -56 9 0 21 17 47 30 47 3 0 13 -7 23
-14z m1257 -58 c13 -22 16 -34 8 -39 -11 -7 -40 18 -58 50 -9 18 -8 21 10 21
12 0 28 -13 40 -32z m-1350 -43 c0 -8 -5 -15 -11 -15 -18 0 -79 -51 -79 -67 0
-16 -41 -34 -54 -23 -15 14 3 60 23 60 10 0 21 7 25 15 3 9 18 15 36 15 20 0
30 5 30 15 0 8 7 15 15 15 8 0 15 -7 15 -15z m60 0 c0 -8 -7 -15 -15 -15 -8 0
-15 7 -15 15 0 8 7 15 15 15 8 0 15 -7 15 -15z m127 -30 c-15 -16 -19 -13 -11
9 3 9 10 13 15 10 5 -3 3 -11 -4 -19z m-87 -135 c5 0 11 8 13 18 3 9 5 -3 6
-28 l0 -45 -19 24 c-14 16 -19 36 -18 65 l1 41 4 -37 c2 -21 8 -38 13 -38z
m1413 48 c19 -17 25 -31 23 -53 -3 -30 -26 -49 -26 -22 0 9 -5 17 -11 19 -10
3 -25 78 -16 78 2 0 16 -10 30 -22z m-1503 -3 c0 -8 -7 -15 -15 -15 -8 0 -15
7 -15 15 0 8 7 15 15 15 8 0 15 -7 15 -15z m-73 -61 c3 -9 -4 -25 -16 -37 -17
-17 -25 -19 -39 -11 -42 27 -14 96 30 73 10 -6 22 -17 25 -25z m1453 11 c0 -8
-4 -15 -10 -15 -5 0 -10 7 -10 15 0 8 5 15 10 15 6 0 10 -7 10 -15z m-1360
-19 c0 -18 -27 -29 -36 -14 -4 5 0 14 7 19 20 13 29 11 29 -5z m-200 -6 c0 -5
-4 -10 -10 -10 -5 0 -10 -13 -10 -29 0 -29 -14 -42 -37 -33 -20 7 -15 23 14
54 28 29 43 35 43 18z m1596 -35 c20 -10 32 -11 41 -3 8 6 13 7 13 1 0 -6 10
-8 23 -6 17 3 26 -4 40 -33 10 -20 16 -38 13 -41 -7 -7 -46 21 -46 33 0 7 -17
11 -46 10 -25 -1 -48 2 -50 6 -10 17 -24 7 -24 -16 0 -29 19 -44 30 -25 7 11
13 11 34 -1 14 -7 26 -19 26 -27 0 -16 -12 -17 -29 0 -11 10 -14 10 -18 0 -3
-7 -13 -13 -23 -13 -18 0 -21 7 -36 93 -7 42 4 47 52 22z m182 -39 c4 -29 0
-31 -29 -16 -12 7 -19 21 -19 42 0 29 1 30 23 16 12 -9 23 -27 25 -42z m-1598
14 c0 -5 -7 -10 -16 -10 -8 0 -12 5 -9 10 3 6 10 10 16 10 5 0 9 -4 9 -10z
m24 -25 c-7 -16 -24 -21 -24 -6 0 8 7 13 27 20 1 1 0 -6 -3 -14z m-167 -11 c8
-22 -11 -37 -36 -29 -23 7 -28 30 -8 38 23 10 38 7 44 -9z m-59 -57 c-2 -11
-11 -25 -21 -31 -15 -9 -21 -7 -33 8 -20 28 -17 45 9 55 27 11 49 -5 45 -32z
m1733 22 c11 -5 17 -14 14 -20 -9 -14 -25 -11 -25 5 0 8 -8 17 -17 19 -10 3
-12 5 -5 6 7 0 22 -4 33 -10z m89 1 c13 -9 13 -11 0 -19 -17 -12 -30 -5 -30
15 0 16 9 18 30 4z m-120 -35 c0 -8 -9 -15 -20 -15 -20 0 -26 11 -13 23 12 13
33 7 33 -8z m-1489 -28 c-13 -13 -31 0 -24 19 4 11 8 12 20 3 9 -8 10 -16 4
-22z m1594 13 c8 -26 -1 -40 -26 -40 -22 0 -34 22 -25 45 8 22 44 18 51 -5z
m60 -24 c24 -21 27 -27 16 -40 -19 -23 -43 -5 -46 33 -2 17 -2 31 0 31 1 0 15
-11 30 -24z m-258 -40 c11 -4 11 -1 3 14 -9 17 -8 20 7 20 20 -1 57 -30 91
-74 43 -56 15 -65 -38 -11 -34 33 -52 44 -48 28 3 -15 -14 -43 -27 -43 -7 0
-18 7 -25 15 -11 13 -11 20 0 39 6 13 10 34 6 47 -4 19 -3 19 6 -3 6 -15 18
-30 25 -32z m-1633 8 c9 -4 16 -18 16 -34 0 -16 7 -30 15 -34 16 -6 21 -36 7
-36 -16 0 -74 81 -68 96 6 16 8 16 30 8z m206 -44 c0 -5 -4 -10 -10 -10 -5 0
-10 -24 -10 -54 0 -56 -8 -67 -42 -58 -19 5 -25 22 -8 22 6 0 10 18 10 39 0
22 3 46 6 55 7 17 54 22 54 6z m1708 -97 c-3 -43 -8 -78 -13 -78 -16 0 -23 63
-13 110 16 73 30 54 26 -32z m-1671 51 c-3 -3 -12 -4 -19 -1 -8 3 -5 6 6 6 11
1 17 -2 13 -5z m-152 -45 c-5 -7 -11 -6 -20 1 -11 9 -12 15 -2 25 10 11 13 10
20 -1 4 -8 5 -19 2 -25z m1575 -20 c0 -24 -23 -21 -28 4 -2 10 3 17 12 17 10
0 16 -9 16 -21z m143 -10 c13 -49 -31 -75 -66 -40 -20 20 -20 21 -2 41 24 27
61 26 68 -1z m-1689 -21 c19 -37 19 -38 6 -38 -13 0 -50 37 -50 49 0 5 6 12
13 14 6 3 13 6 14 6 1 1 9 -13 17 -31z m214 20 c10 -13 5 -68 -7 -68 -3 0 -6
10 -7 23 0 12 -4 30 -8 40 -9 20 6 23 22 5z m-133 -59 c9 -27 3 -31 -29 -23
-17 4 -26 13 -26 25 0 27 46 26 55 -2z m1330 1 c3 -6 -1 -7 -9 -4 -18 7 -21
14 -7 14 6 0 13 -4 16 -10z m-1239 -40 c25 0 15 -28 -12 -34 -25 -7 -64 15
-64 35 0 10 54 16 58 7 2 -5 10 -8 18 -8z m1498 -6 c27 -10 -12 -33 -56 -34
-46 0 -94 20 -76 32 15 9 109 11 132 2z m-85 -73 c19 -12 4 -51 -19 -51 -10 0
-21 9 -25 20 -11 34 12 51 44 31z m96 -87 c14 -14 14 -19 2 -38 -20 -30 -42
-31 -54 -3 -21 45 18 75 52 41z m-409 -72 c1 -20 -1 -29 -3 -19 -3 9 -13 17
-24 17 -27 0 -24 28 4 33 12 2 22 5 22 6 0 0 0 -16 1 -37z m-66 12 c0 -10 -7
-14 -22 -12 -32 5 -35 28 -4 28 17 0 26 -5 26 -16z m537 -10 c-3 -3 -12 -4
-19 -1 -8 3 -5 6 6 6 11 1 17 -2 13 -5z m-228 -48 c24 -13 23 -14 -30 -25 -43
-9 -68 -8 -119 3 -36 8 -53 14 -38 15 15 1 30 6 33 11 9 15 126 11 154 -4z
m226 -6 c7 -12 -5 -60 -15 -60 -10 0 -22 48 -15 60 4 6 10 10 15 10 5 0 11 -4
15 -10z m-605 -65 c0 -25 -27 -17 -32 10 -4 21 -3 23 13 14 11 -5 19 -16 19
-24z m150 -4 c0 -6 -4 -13 -10 -16 -5 -3 -10 1 -10 9 0 9 5 16 10 16 6 0 10
-4 10 -9z m150 -6 c0 -8 -7 -15 -15 -15 -8 0 -15 7 -15 15 0 8 7 15 15 15 8 0
15 -7 15 -15z m-216 -1 c12 -5 13 -9 3 -19 -13 -14 -41 0 -31 16 6 11 8 11 28
3z m141 -14 c7 -24 -1 -40 -20 -40 -21 0 -37 34 -23 48 18 18 36 14 43 -8z
m363 8 c20 -20 14 -34 -23 -54 -19 -10 -35 -24 -35 -31 0 -7 -7 -13 -15 -13
-8 0 -15 6 -15 14 0 8 7 16 15 20 9 3 15 18 15 35 0 38 33 54 58 29z m-725
-51 c-4 -7 -6 -20 -5 -30 4 -22 -24 -33 -43 -17 -17 14 -3 40 21 40 8 0 14 7
14 16 0 8 5 12 10 9 6 -4 7 -12 3 -18z m297 8 c0 -8 -4 -15 -10 -15 -5 0 -10
7 -10 15 0 8 5 15 10 15 6 0 10 -7 10 -15z m-44 -31 c-15 -15 -38 6 -24 23 7
9 13 9 22 0 9 -8 10 -15 2 -23z m333 9 c13 -25 -5 -53 -34 -53 -15 0 -26 7
-30 20 -13 41 43 70 64 33z m-287 -15 c7 -19 -2 -38 -18 -38 -8 0 -14 8 -14
18 0 30 23 44 32 20z m-416 -32 c16 -17 19 -52 3 -61 -5 -4 -21 -4 -35 -1 -26
7 -33 43 -12 64 16 16 26 15 44 -2z m569 4 c3 -5 12 -7 20 -4 19 8 31 -22 16
-40 -10 -12 -17 -11 -46 7 -19 12 -34 28 -35 35 0 14 36 16 45 2z m175 0 c0
-5 -4 -10 -10 -10 -5 0 -10 5 -10 10 0 6 5 10 10 10 6 0 10 -4 10 -10z m-690
-105 c0 -8 -7 -15 -15 -15 -8 0 -15 7 -15 15 0 8 7 15 15 15 8 0 15 -7 15 -15z
m330 -25 c0 -32 -15 -41 -47 -29 -33 12 -28 49 7 61 26 9 40 -3 40 -32z m-110
-65 c0 -8 -7 -15 -15 -15 -8 0 -15 7 -15 15 0 8 7 15 15 15 8 0 15 -7 15 -15z
m-220 -70 c0 -42 -3 -55 -15 -55 -11 0 -15 12 -15 48 0 27 3 52 7 55 16 17 23
3 23 -48z m250 -66 c0 -61 -13 -73 -25 -21 -5 26 8 82 20 82 3 0 5 -27 5 -61z
m-120 -18 c0 -54 -20 -118 -31 -100 -10 16 -12 129 -2 155 6 16 7 16 20 -2 7
-10 13 -34 13 -53z m-106 -122 c-8 -14 -24 -10 -24 6 0 9 6 12 15 9 8 -4 12
-10 9 -15z"/>
<path d="M860 1911 c0 -17 12 -41 20 -41 14 0 7 39 -7 44 -7 3 -13 1 -13 -3z"/>
<path d="M909 1879 c-28 -28 -31 -35 -25 -71 4 -26 3 -44 -4 -48 -6 -4 -13
-26 -15 -48 -3 -32 -1 -42 10 -42 11 0 15 12 15 41 0 32 3 39 13 31 8 -7 18
-5 34 8 22 17 22 18 3 23 -18 5 -14 11 31 55 41 38 51 53 44 68 -5 13 -9 15
-12 6 -9 -23 -61 -74 -66 -65 -3 5 5 17 19 27 13 11 24 25 24 32 0 24 -38 15
-71 -17z"/>
<path d="M1067 1894 c-3 -3 -1 -17 4 -31 8 -22 4 -31 -28 -66 -22 -25 -44 -41
-55 -39 -13 2 -18 -3 -18 -21 0 -13 3 -27 7 -31 4 -4 6 -42 4 -85 -3 -78 -3
-78 23 -78 29 0 35 12 11 21 -11 4 -15 22 -15 76 0 45 4 69 10 65 6 -3 10 -17
10 -31 0 -13 5 -24 11 -24 8 0 10 12 6 35 -3 19 -1 37 5 41 6 4 5 10 -3 15
-11 7 -7 16 19 39 27 26 32 38 32 76 0 40 -7 53 -23 38z"/>
<path d="M1449 1803 c0 -5 0 -28 1 -52 1 -38 8 -51 46 -89 25 -24 47 -42 50
-39 3 3 -13 24 -35 47 -37 38 -41 48 -41 91 0 27 -4 49 -10 49 -5 0 -10 -3
-11 -7z"/>
<path d="M770 1790 c0 -5 7 -7 15 -4 8 4 15 8 15 10 0 2 -7 4 -15 4 -8 0 -15
-4 -15 -10z"/>
<path d="M1085 1763 c-3 -10 -1 -19 5 -21 6 -2 8 -17 4 -38 -3 -19 -4 -44 0
-56 8 -34 63 -88 82 -81 20 8 14 35 -9 39 -42 6 -57 34 -57 106 0 65 -10 87
-25 51z"/>
<path d="M1060 1715 c0 -8 5 -15 10 -15 6 0 10 7 10 15 0 8 -4 15 -10 15 -5 0
-10 -7 -10 -15z"/>
<path d="M808 1682 c-27 -32 -78 -45 -78 -20 0 8 -3 9 -10 2 -12 -12 6 -64 21
-64 4 0 15 -7 24 -16 15 -15 16 -15 10 7 -7 31 7 52 31 47 22 -4 31 -45 15
-61 -13 -13 -15 -77 -2 -77 11 0 24 128 19 180 l-3 34 -27 -32z"/>
<path d="M910 1667 c0 -35 1 -37 16 -23 14 14 14 18 0 38 -16 22 -16 22 -16
-15z"/>
<path d="M951 1593 c2 -85 2 -86 9 -33 11 80 11 120 0 120 -6 0 -9 -35 -9 -87z"/>
<path d="M1207 1643 c-14 -13 -6 -23 18 -23 24 0 25 -2 19 -40 -6 -38 -5 -40
18 -40 22 0 25 4 20 28 -2 15 -16 39 -30 55 -27 28 -34 32 -45 20z"/>
<path d="M913 1550 c0 -41 2 -58 4 -37 2 20 2 54 0 75 -2 20 -4 3 -4 -38z"/>
<path d="M1560 1610 c0 -17 37 -53 51 -48 8 3 2 14 -15 31 -29 29 -36 32 -36
17z"/>
<path d="M610 1551 c0 -5 -9 -11 -20 -14 -20 -5 -37 -33 -26 -44 3 -3 12 0 21
7 9 7 18 10 22 6 4 -3 -2 -12 -12 -20 -10 -7 -15 -18 -11 -24 3 -6 -1 -17 -10
-26 -15 -16 -11 -36 8 -36 5 0 8 7 5 15 -9 21 9 28 32 13 16 -10 25 -9 44 1
19 10 30 10 46 2 11 -7 21 -16 21 -21 0 -6 5 -10 10 -10 6 0 10 20 10 45 0 34
-4 45 -15 45 -9 0 -18 -7 -21 -15 -4 -9 -19 -15 -39 -15 -25 0 -34 5 -38 22
-8 31 10 58 38 58 14 0 25 5 25 10 0 6 -20 10 -45 10 -25 0 -45 -4 -45 -9z m0
-81 c0 -5 -4 -10 -10 -10 -5 0 -10 5 -10 10 0 6 5 10 10 10 6 0 10 -4 10 -10z"/>
<path d="M775 1530 c3 -5 8 -10 11 -10 2 0 4 5 4 10 0 6 -5 10 -11 10 -5 0 -7
-4 -4 -10z"/>
<path d="M1518 1533 c6 -2 12 -9 12 -15 0 -6 -6 -8 -12 -5 -17 6 -11 -82 6
-99 10 -9 11 0 8 42 -3 39 -1 54 8 54 10 0 10 3 0 15 -7 8 -18 15 -24 14 -7 0
-6 -2 2 -6z"/>
<path d="M508 1487 c-32 -27 -47 -91 -23 -101 12 -4 15 2 15 28 0 21 9 43 25
60 39 43 28 51 -17 13z"/>
<path d="M782 1490 c0 -14 2 -19 5 -12 2 6 2 18 0 25 -3 6 -5 1 -5 -13z"/>
<path d="M1470 1491 c0 -11 -13 -34 -30 -51 -33 -34 -37 -42 -15 -34 29 11 45
-21 46 -93 1 -37 4 -59 6 -48 7 27 22 45 36 42 7 -1 10 5 8 13 -2 8 -4 23 -5
33 0 10 -12 27 -26 38 -24 18 -24 20 -7 33 13 10 17 24 15 47 -3 36 -28 54
-28 20z"/>
<path d="M1337 1483 c-4 -3 -7 -13 -7 -21 0 -12 3 -12 15 -2 8 7 15 16 15 21
0 11 -14 12 -23 2z"/>
<path d="M1253 1410 c0 -41 2 -58 4 -37 2 20 2 54 0 75 -2 20 -4 3 -4 -38z"/>
<path d="M951 1434 c0 -11 3 -14 6 -6 3 7 2 16 -1 19 -3 4 -6 -2 -5 -13z"/>
<path d="M1330 1419 c0 -5 5 -7 10 -4 6 3 10 8 10 11 0 2 -4 4 -10 4 -5 0 -10
-5 -10 -11z"/>
<path d="M687 1375 c10 -13 21 -25 26 -25 4 0 7 -44 7 -98 0 -87 2 -101 20
-117 18 -17 20 -17 14 -2 -3 9 -10 17 -15 17 -5 0 -9 46 -9 103 -1 85 -4 106
-19 125 -26 30 -47 29 -24 -3z"/>
<path d="M1330 1380 c0 -5 10 -16 21 -24 14 -9 19 -21 15 -31 -3 -10 3 -28 15
-43 l20 -26 -3 53 c-3 49 -5 54 -35 66 -18 8 -33 10 -33 5z"/>
<path d="M570 1360 c0 -5 4 -10 9 -10 15 0 61 -49 61 -65 0 -8 -8 -15 -17 -15
-15 0 -14 -2 3 -14 14 -11 16 -18 8 -26 -13 -13 -44 -3 -44 14 0 7 -18 31 -41
53 -35 36 -44 40 -60 30 -10 -6 -19 -16 -19 -22 0 -5 32 -40 70 -77 61 -59 70
-72 70 -103 0 -20 3 -34 8 -31 9 5 7 70 -3 86 -4 6 5 20 19 31 38 30 35 74 -9
122 -33 36 -55 47 -55 27z"/>
<path d="M830 1324 c0 -8 5 -12 10 -9 6 4 8 11 5 16 -9 14 -15 11 -15 -7z"/>
<path d="M1441 1324 c0 -11 3 -14 6 -6 3 7 2 16 -1 19 -3 4 -6 -2 -5 -13z"/>
<path d="M1551 1324 c0 -11 3 -14 6 -6 3 7 2 16 -1 19 -3 4 -6 -2 -5 -13z"/>
<path d="M1318 1287 c29 -30 34 -43 37 -93 12 -184 35 -224 35 -59 l0 105 -41
38 c-54 48 -74 55 -31 9z"/>
<path d="M1576 1295 c-9 -13 -16 -28 -16 -32 0 -4 5 0 11 9 5 10 16 15 24 12
10 -4 15 0 15 15 0 28 -14 27 -34 -4z"/>
<path d="M798 1231 c3 -32 15 -49 68 -102 80 -79 85 -69 7 12 -45 47 -58 67
-58 91 0 17 -5 33 -10 35 -7 2 -9 -12 -7 -36z"/>
<path d="M495 1228 c4 -9 20 -26 36 -39 26 -20 29 -28 29 -80 0 -52 -3 -60
-31 -83 -17 -14 -29 -31 -27 -38 3 -7 20 5 41 27 33 35 37 45 37 92 0 55 0 55
-64 113 -18 16 -25 19 -21 8z"/>
<path d="M1498 1198 c-2 -24 -2 -51 0 -60 8 -34 32 8 32 56 0 62 -26 64 -32 4z"/>
<path d="M1310 1075 c0 -19 4 -35 9 -35 13 0 18 20 13 47 -7 36 -22 27 -22
-12z"/>
<path d="M634 1078 c3 -11 -7 -28 -31 -49 -31 -26 -33 -30 -12 -24 20 7 22 6
12 -6 -7 -8 -8 -20 -4 -27 5 -9 11 -5 21 13 7 14 22 25 32 25 10 0 18 7 18 15
0 8 6 15 14 15 8 0 16 7 20 15 7 19 -5 19 -30 0 -24 -18 -38 -19 -31 -2 3 8 1
20 -5 28 -8 11 -9 11 -4 -3z m6 -47 c0 -12 -20 -25 -27 -18 -7 7 6 27 18 27 5
0 9 -4 9 -9z"/>
<path d="M948 1048 c5 -5 16 -8 23 -6 8 3 3 7 -10 11 -17 4 -21 3 -13 -5z"/>
<path d="M751 973 c1 -17 3 -21 6 -10 5 20 19 23 26 5 2 -7 8 -10 12 -6 9 8
-18 38 -34 38 -6 0 -10 -12 -10 -27z"/>
<path d="M1000 944 c0 -48 13 -55 34 -20 8 14 8 20 -1 23 -7 3 -13 13 -13 24
0 10 -4 19 -10 19 -5 0 -10 -21 -10 -46z"/>
<path d="M781 920 c0 -29 1 -32 10 -17 7 11 7 23 0 35 -9 14 -10 11 -10 -18z"/>
<path d="M817 943 c-13 -12 -7 -43 8 -43 8 0 15 6 15 13 0 18 -15 38 -23 30z"/>
<path d="M1041 895 c-13 -19 -27 -35 -32 -35 -5 0 -9 -9 -9 -21 0 -17 7 -13
40 23 37 40 50 68 33 68 -5 0 -19 -16 -32 -35z"/>
<path d="M908 830 c-4 -50 -2 -92 3 -103 6 -10 7 -31 4 -48 -6 -24 -3 -30 17
-38 13 -5 26 -7 31 -4 14 9 7 31 -13 36 -17 4 -20 10 -14 32 4 15 2 36 -5 48
-6 12 -12 54 -13 92 l-3 70 -7 -85z"/>
<path d="M810 831 c0 -12 5 -21 10 -21 6 0 10 6 10 14 0 8 -4 18 -10 21 -5 3
-10 -3 -10 -14z"/>
<path d="M1030 800 c0 -5 5 -10 10 -10 6 0 10 5 10 10 0 6 -4 10 -10 10 -5 0
-10 -4 -10 -10z"/>
<path d="M788 740 c-20 -19 -25 -45 -6 -34 6 4 16 0 22 -8 6 -8 20 -20 32 -26
20 -10 21 -8 22 34 0 24 -4 42 -9 39 -5 -3 -17 -2 -26 3 -13 7 -23 5 -35 -8z"/>
<path d="M980 680 c0 -16 5 -30 10 -30 6 0 10 14 10 30 0 17 -4 30 -10 30 -5
0 -10 -13 -10 -30z"/>
<path d="M1280 1805 c0 -8 2 -15 4 -15 2 0 6 7 10 15 3 8 1 15 -4 15 -6 0 -10
-7 -10 -15z"/>
</g>
</svg>
